{"title":"The Block - S12E02 - The Vault Is Opened","uid":15621191,"size":424032236,"categoryP":"video","categoryS":"tv_shows","magnet":"?xt=urn:btih:9ceaf5041eeb3d725b96745dd6cfc3cccc20d30d&amp;dn=The+Block+-+S12E02+-+The+Vault+Is+Opened&amp;tr=udp%3A%2F%2Ftracker.leechers-paradise.org%3A6969&amp;tr=udp%3A%2F%2Fzer0day.ch%3A1337&amp;tr=udp%3A%2F%2Fopen.demonii.com%3A1337&amp;tr=udp%3A%2F%2Ftracker.coppersurfer.tk%3A6969&amp;tr=udp%3A%2F%2Fexodus.desync.com%3A6969","seeders":8,"leechers":1,"uploader":"Bullrout","files":1,"time":1471880937,"description":"The Block - S12E02 - The Vault Is Opened\r\n\r\nIt's a race to finish the 48 hour challenge and the couples do their best to impress the judges; Neale Whitaker, Darren Palmer and Shaynna Blaze. The highest score means first pick of the apartments.\r\n\r\nComplete name                            : The Block - S12E02 - The Vault Is Opened.mp4\r\nFormat                                   : MPEG-4\r\nFormat profile                           : Base Media / Version 2\r\nCodec ID                                 : mp42 (mp42/isom/avc1)\r\nFile size                                : 404 MiB\r\nDuration                                 : 50mn 46s\r\nOverall bit rate mode                    : Variable\r\nOverall bit rate                         : 1 114 Kbps\r\n\r\nVideo\r\nID                                       : 2\r\nFormat                                   : AVC\r\nFormat/Info                              : Advanced Video Codec\r\nFormat profile                           :   \r\nFormat settings, CABAC                   : Yes\r\nFormat settings, ReFrames                : 3 frames\r\nCodec ID                                 : avc1\r\nCodec ID/Info                            : Advanced Video Coding\r\nDuration                                 : 50mn 46s\r\nBit rate mode                            : Variable\r\nBit rate                                 : 982 Kbps\r\nMaximum bit rate                         : 1 000 Kbps\r\nWidth                                    : 720 pixels\r\nHeight                                   : 404 pixels\r\nDisplay aspect ratio                     : 16:9\r\nOriginal display aspect ratio            : 16:9\r\nFrame rate mode                          : Constant\r\nFrame rate                               : 25.000 fps\r\nStandard                                 : PAL\r\nColor space                              : YUV\r\nChroma subsampling                       : 4:2:0\r\nBit depth                                : 8 bits\r\nScan type                                : Progressive\r\nBits/(Pixel*Frame)                       : 0.135\r\nStream size                              : 357 MiB (88%)\r\nWriting library                          : x264 core 112\r\nColor range                              : Limited\r\nColor primaries                          : BT.601 PAL\r\nTransfer characteristics                 : BT.470 System B, BT.470 System G\r\nMatrix coefficients                      : BT.601\r\n\r\nAudio\r\nID                                       : 1\r\nFormat                                   : AAC\r\nFormat/Info                              : Advanced Audio Codec\r\nFormat profile                           : LC\r\nCodec ID                                 : 40\r\nDuration                                 : 50mn 46s\r\nBit rate mode                            : Variable\r\nBit rate                                 : 128 Kbps\r\nMaximum bit rate                         : 576 Kbps\r\nChannel(s)                               : 2 channels\r\nChannel positions                        : Front: L R\r\nSampling rate                            : 48.0 KHz\r\nFrame rate                               : 46.875 fps (1024 spf)\r\nCompression mode                         : Lossy\r\nStream size                              : 46.5 MiB (11%)","torrent":{"xt":"urn:btih:9ceaf5041eeb3d725b96745dd6cfc3cccc20d30d","amp;dn":"The+Block+-+S12E02+-+The+Vault+Is+Opened","amp;tr":["udp%3A%2F%2Ftracker.leechers-paradise.org%3A6969","udp%3A%2F%2Fzer0day.ch%3A1337","udp%3A%2F%2Fopen.demonii.com%3A1337","udp%3A%2F%2Ftracker.coppersurfer.tk%3A6969","udp%3A%2F%2Fexodus.desync.com%3A6969"],"infoHash":"9ceaf5041eeb3d725b96745dd6cfc3cccc20d30d","infoHashBuffer":{"type":"Buffer","data":[156,234,245,4,30,235,61,114,91,150,116,93,214,207,195,204,204,32,211,13]},"announce":[],"urlList":[]}}